<svg xmlns="http://www.w3.org/2000/svg" xmlns:xlink="http://www.w3.org/1999/xlink" viewBox="0 0 1366.5 595.72"><defs><style>.cls-1{fill:#f05454;}.cls-2{fill:url(#linear-gradient);}</style><linearGradient id="linear-gradient" x1="37.43" y1="359.3" x2="201.07" y2="418.81" gradientTransform="translate(-74 20)" gradientUnits="userSpaceOnUse"><stop offset="0" stop-color="#f05454"/><stop offset="1" stop-color="#ff6e7f"/></linearGradient></defs><title>Asset 1</title><g id="Layer_2" data-name="Layer 2"><g id="Layer_1-2" data-name="Layer 1"><path class="cls-1" d="M1297.47,186c-50-50-159-76-319.11-76S742.27,0,742.27,0H145.54L389.39.84s59,107.25-123.09,107.25S.5,193.5.5,193.5V0H0V587.93c35.1-29.16,77.53-46.23,123.24-46.23,27.41,0,56.38,10.4,81.72,22.83,23.63,11.58,46.51,35.93,73.56,30.38,12.7-2.6,23.72-11.81,35-19.37C348.77,552,390.45,543.38,430,551.45c27.09,5.52,53.39,18.61,80.84,18,30.1-.63,58.26-17.59,87.82-24.54a136.46,136.46,0,0,1,90.47,10.2c14.69,7.06,29,16.85,44.72,18.16,19.14,1.61,37.22-9.49,55.46-16.75a145.14,145.14,0,0,1,102.32-2.11c19.29,6.8,37.93,17.75,58,19.14,31.69,2.2,60.09-18.6,90.35-26.25,29.44-7.44,64.61.93,92.46,13.56,10.69,4.85,21.24,10.92,32.6,12.17,18.55,2,36.13-9,53.66-16.74a161,161,0,0,1,67.62-14.06c27.66.32,54.88,7.76,80.23,20.91V275S1347.49,236,1297.47,186Z"/><path class="cls-2" d="M.5,255.5c75.11,0,136,63.35,136,141.5S75.61,538.5.5,538.5"/></g></g></svg>